#!OML:ASF G:\ViconDB\ViconDB\414\test\team2\shane.ASF
:FULLY-SPECIFIED
:DEGREES
301
root 3.47258 16.3085 15.8838 -5.4772 -2.17532 -5.20242
lowerback 5.7665 6.91283 7.15092
upperback 1.36847 9.59617 -3.36721
thorax -0.0220688 4.8781 -7.89631
lowerneck -15.696 -10.2352 -12.0153
upperneck 17.3609 -15.5133 18.8681
head 10.7398 -6.19365 6.35001
rclavicle -1.03666e-013 -3.18055e-015
rhumerus -21.4834 25.2882 -96.7524
rradius 41.9677
rwrist 23.7714
rhand -31.4794 -15.8786
rfingers 7.12502
rthumb -4.74608 -45.8054
lclavicle -1.03666e-013 -3.18055e-015
lhumerus -49.1068 1.14899 72.6905
lradius 16.3278
lwrist -19.4456
lhand -37.8875 8.16519
lfingers 7.12502
lthumb -10.9307 37.8607
rfemur 37.5886 -7.88599 20.599
rtibia 7.63333e-014
rfoot -15.5376 6.06823
rtoes -18.935
lfemur -26.2741 5.74109 -12.2723
ltibia 39.6408
lfoot -23.1872 -14.2804
ltoes -8.86335
302
root 3.49566 16.316 16.0922 -5.41783 -2.22695 -4.94212
lowerback 5.61933 6.96938 6.78246
upperback 1.4068 9.64021 -3.48827
thorax 0.0676353 4.90484 -7.79734
lowerneck -15.9244 -10.2619 -11.9773
upperneck 17.3092 -15.573 19.0248
head 10.7911 -6.19163 6.38241
rclavicle -8.69683e-014 -1.74931e-014
rhumerus -21.8781 24.6747 -97.1759
rradius 41.1851
rwrist 24.0312
rhand -31.348 -15.4533
rfingers 7.12502
rthumb -4.6192 -45.3829
lclavicle -8.69683e-014 -1.74931e-014
lhumerus -48.8834 1.44439 72.6884
lradius 16.0246
lwrist -19.5642
lhand -37.7819 7.89826
lfingers 7.12502
lthumb -10.8289 37.5991
rfemur 38.1423 -7.6647 20.0931
rtibia 3.18055e-015
rfoot -14.1654 6.16405
rtoes -21.0816
lfemur -25.8289 4.57776 -12.4417
ltibia 40.1896
lfoot -22.2601 -12.9944
ltoes -8.34756
303
root 3.52478 16.3286 16.2902 -5.43207 -2.08463 -4.87542
lowerback 5.60074 6.90481 6.62426
upperback 1.46375 9.54297 -3.49816
thorax 0.0950378 4.85795 -7.71453
lowerneck -16.2427 -10.2628 -11.8198
upperneck 17.3608 -15.5491 18.8393
head 10.8329 -6.16675 6.28151
rclavicle 4.90004e-014 0
rhumerus -22.4389 24.219 -97.5724
rradius 40.466
rwrist 24.3222
rhand -30.9127 -15.2321
rfingers 7.12502
rthumb -4.19883 -45.1704
lclavicle 4.90004e-014 0
lhumerus -48.6682 1.97791 72.7072
lradius 15.7053
lwrist -20.1984
lhand -38.0181 8.31388
lfingers 7.12502
lthumb -11.0567 38.0027
rfemur 38.6761 -7.63836 19.7173
rtibia -1.24042e-013
rfoot -12.3989 6.49067
rtoes -22.9534
lfemur -25.2536 3.5828 -12.5432
ltibia 40.4992
lfoot -21.4287 -12.4002
ltoes -7.67066
304
root 3.54181 16.3525 16.4902 -5.42262 -1.9796 -4.81721
lowerback 5.66177 6.87847 6.41089
upperback 1.44653 9.49797 -3.55677
thorax 0.0101324 4.83017 -7.67039
lowerneck -16.2479 -10.3468 -12.2098
upperneck 17.2413 -15.6815 19.349
head 10.9068 -6.2094 6.51136
rclavicle 8.37877e-014 -2.06736e-014
rhumerus -23.0116 23.6546 -98.1097
rradius 39.5097
rwrist 24.4526
rhand -30.7719 -15.1462
rfingers 7.12502
rthumb -4.06287 -45.0873
lclavicle 8.37877e-014 -2.06736e-014
lhumerus -48.4421 2.33367 72.6606
lradius 15.436
lwrist -20.644
lhand -38.0097 8.08311
lfingers 7.12502
lthumb -11.0487 37.7723
rfemur 39.1183 -7.57279 19.3512
rtibia -8.26944e-014
rfoot -10.0153 7.1377
rtoes -23.1036
lfemur -24.6824 3.01117 -12.5952
ltibia 40.7385
lfoot -20.8184 -12.3946
ltoes -7.17068
305
root 3.56629 16.3784 16.6859 -5.48106 -1.85104 -4.92749
lowerback 5.70794 6.83783 6.39596
upperback 1.50367 9.44477 -3.52835
thorax 0.0273427 4.80549 -7.63442
lowerneck -16.408 -10.3562 -12.1344
upperneck 17.215 -15.6936 19.3415
head 10.9234 -6.20167 6.48727
rclavicle 1.00088e-013 0
rhumerus -23.6738 22.9998 -98.5405
rradius 38.7108
rwrist 24.4192
rhand -30.4899 -14.8136
rfingers 7.12502
rthumb -3.79051 -44.7596
lclavicle 1.00088e-013 0
lhumerus -48.061 2.12266 73.2494
lradius 15.1841
lwrist -20.6078
lhand -38.1525 8.03379
lfingers 7.12502
lthumb -11.1864 37.7156
rfemur 39.5801 -7.52405 19.1022
rtibia -8.26944e-014
rfoot -7.3714 7.82799
rtoes -24.9089
lfemur -23.9708 2.73094 -12.4908
ltibia 40.9035
lfoot -20.3973 -12.6569
ltoes -6.2359
306
root 3.59138 16.4034 16.8902 -5.52351 -1.96416 -5.0057
lowerback 5.65929 6.87835 6.41152
upperback 1.56627 9.49716 -3.48972
thorax 0.124785 4.83764 -7.58991
lowerneck -16.4474 -10.4484 -12.1758
upperneck 17.0556 -15.7999 19.4024
head 10.9038 -6.25093 6.4889
rclavicle 1.82882e-014 -2.70347e-014
rhumerus -24.1457 22.3813 -98.8741
rradius 37.6346
rwrist 24.1779
rhand -30.2541 -14.8455
rfingers 7.12502
rthumb -3.56289 -44.7955
lclavicle 1.82882e-014 -2.70347e-014
lhumerus -47.7866 2.36518 73.4516
lradius 15.1142
lwrist -21.3882
lhand -37.7869 8.10365
lfingers 7.12502
lthumb -10.8337 37.8042
rfemur 39.9413 -7.27004 18.9136
rtibia -3.18055e-015
rfoot -4.45195 8.40002
rtoes -26.046
lfemur -23.1198 2.89356 -12.4311
ltibia 40.9854
lfoot -20.5822 -12.5182
ltoes -5.95218
307
root 3.60205 16.4252 17.0915 -5.66217 -2.17982 -5.25434
lowerback 5.80237 6.93054 6.28082
upperback 1.5844 9.56612 -3.3436
thorax 0.0290045 4.86516 -7.38605
lowerneck -16.62 -10.4236 -12.0127
upperneck 17.1772 -15.7718 19.2385
head 10.943 -6.22749 6.40336
rclavicle 4.96962e-014 1.59028e-015
rhumerus -24.8799 22.1358 -99.3041
rradius 36.7759
rwrist 24.1005
rhand -29.7613 -14.8535
rfingers 7.12502
rthumb -3.08691 -44.8109
lclavicle 4.96962e-014 1.59028e-015
lhumerus -47.449 2.36563 73.8842
lradius 15.031
lwrist -21.7874
lhand -37.8632 8.12085
lfingers 7.12502
lthumb -10.9074 37.8176
rfemur 40.3316 -6.94819 18.9237
rtibia -4.45278e-014
rfoot -1.14654 8.99731
rtoes -26.3661
lfemur -22.2182 3.85787 -12.147
ltibia 41.0705
lfoot -21.1052 -12.8798
ltoes -6.45432
308
root 3.63626 16.4605 17.2875 -5.64359 -2.18015 -4.97945
lowerback 5.74912 6.84203 5.92872
upperback 1.60898 9.42355 -3.40311
thorax 0.011957 4.79142 -7.24705
lowerneck -16.8313 -10.3248 -11.7184
upperneck 17.2887 -15.6442 18.99
head 10.9473 -6.15657 6.2818
rclavicle 1.60618e-013 -6.04305e-014
rhumerus -25.5113 22.0941 -99.8402
rradius 35.753
rwrist 23.9111
rhand -29.7506 -15.2343
rfingers 7.12502
rthumb -3.07661 -45.1918
lclavicle 1.60618e-013 -6.04305e-014
lhumerus -47.3048 1.63341 74.9942
lradius 15.2744
lwrist -21.1924
lhand -37.7091 8.20579
lfingers 7.12502
lthumb -10.7586 37.9103
rfemur 40.4443 -6.71654 18.2715
rtibia -6.36111e-014
rfoot 2.61852 9.52681
rtoes -26.5945
lfemur -21.4694 4.2279 -12.5616
ltibia 41.0762
lfoot -21.2921 -13.0052
ltoes -6.18803
309
root 3.65359 16.4844 17.4864 -5.78993 -2.24304 -5.20457
lowerback 5.84693 6.757 5.84431
upperback 1.68122 9.30932 -3.21241
thorax -0.032707 4.73064 -7.01051
lowerneck -17.0546 -10.2425 -11.7865
upperneck 17.4299 -15.5348 19.0695
head 11.0373 -6.08496 6.34408
rclavicle 6.5102e-014 -1.74931e-014
rhumerus -26.1356 21.8899 -100.139
rradius 34.8058
rwrist 24.1657
rhand -29.3976 -15.3004
rfingers 7.12502
rthumb -2.73567 -45.2626
lclavicle 6.5102e-014 -1.74931e-014
lhumerus -47.1432 0.972603 76.2309
lradius 15.6741
lwrist -20.2685
lhand -37.4828 7.95178
lfingers 7.12502
lthumb -10.5404 37.6675
rfemur 38.6817 -6.65549 18.1904
rtibia 4.42439
rfoot 4.17386 9.87713
rtoes -26.1699
lfemur -20.5564 5.03749 -12.3422
ltibia 41.0888
lfoot -21.4951 -13.7879
ltoes -5.12054
310
root 3.68439 16.5138 17.6772 -5.81848 -1.99365 -5.06981
lowerback 5.80294 6.57921 5.57443
upperback 1.7887 9.05328 -3.165
thorax 0.0111182 4.6038 -6.79781
lowerneck -17.3636 -10.1876 -11.6028
upperneck 17.6555 -15.4357 18.7475
head 11.1093 -6.03193 6.2085
rclavicle 2.50469e-014 -2.38542e-014
rhumerus -26.6969 22.0262 -100.376
rradius 33.8581
rwrist 24.6054
rhand -29.1459 -15.4238
rfingers 7.12502
rthumb -2.49266 -45.389
lclavicle 2.50469e-014 -2.38542e-014
lhumerus -46.925 0.228624 77.4214
lradius 16.1297
lwrist -19.8989
lhand -37.3305 7.90531
lfingers 7.12502
lthumb -10.3935 37.6284
rfemur 33.6228 -6.9824 17.4988
rtibia 15.6503
rfoot 2.23214 10.3228
rtoes -25.2603
lfemur -19.8203 5.31913 -12.6691
ltibia 41.0762
lfoot -21.6247 -14.1204
ltoes -4.11499
311
root 3.71076 16.531 17.8671 -5.92055 -1.81958 -5.08892
lowerback 6.01219 6.47693 5.4638
upperback 1.81061 8.91918 -3.03208
thorax -0.142202 4.52834 -6.62545
lowerneck -17.402 -10.2123 -11.7287
upperneck 17.7423 -15.4443 18.7258
head 11.1582 -6.04114 6.22166
rclavicle 8.55768e-014 -7.95139e-015
rhumerus -27.3592 21.7288 -100.477
rradius 33.0434
rwrist 24.7888
rhand -28.8528 -15.2062
rfingers 7.12502
rthumb -2.20951 -45.1745
lclavicle 8.55768e-014 -7.95139e-015
lhumerus -47.034 -1.8503 79.734
lradius 16.9179
lwrist -17.6663
lhand -37.3356 7.84938
lfingers 7.12502
lthumb -10.3984 37.5723
rfemur 30.7284 -7.50971 16.8476
rtibia 22.2784
rfoot 2.95728 11.0741
rtoes -23.8645
lfemur -19.0587 5.33342 -12.7689
ltibia 41.1442
lfoot -21.9726 -14.2022
ltoes -3.65704
312
root 3.73377 16.541 18.0525 -6.18229 -1.57918 -5.28441
lowerback 6.20688 6.23154 5.41232
upperback 1.99555 8.59682 -2.80415
thorax -0.151 4.36778 -6.36733
lowerneck -17.9637 -9.96187 -11.3031
upperneck 18.0729 -15.0902 18.2739
head 11.2394 -5.85049 6.0435
rclavicle 1.19271e-015 4.77083e-015
rhumerus -27.8762 21.667 -100.547
rradius 32.4475
rwrist 24.9724
rhand -28.3431 -14.7487
rfingers 7.12502
rthumb -1.71728 -44.7216
lclavicle 1.19271e-015 4.77083e-015
lhumerus -46.4767 -0.873541 79.5945
lradius 16.861
lwrist -19.595
lhand -37.341 7.22692
lfingers 7.12502
lthumb -10.4037 36.9495
rfemur 28.4302 -8.39314 16.2127
rtibia 27.8105
rfoot 4.42622 11.7189
rtoes -21.8431
lfemur -18.1587 5.10507 -12.6794
ltibia 41.2481
lfoot -22.3454 -14.1771
ltoes -3.21569
313
root 3.75887 16.5494 18.2413 -6.31179 -1.24038 -5.31414
lowerback 6.182 6.01953 5.28539
upperback 2.18557 8.30494 -2.60584
thorax -0.0321335 4.22697 -6.06933
lowerneck -18.0652 -9.95187 -11.6158
upperneck 18.1107 -14.994 18.3088
head 11.2856 -5.81891 6.12741
rclavicle -4.86029e-014 1.27222e-014
rhumerus -28.4757 21.7171 -100.478
rradius 32.2116
rwrist 25.156
rhand -27.8448 -14.7956
rfingers 7.12502
rthumb -1.23604 -44.7718
lclavicle -4.86029e-014 1.27222e-014
lhumerus -46.3496 -3.08464 82.2132
lradius 17.9589
lwrist -16.2304
lhand -36.9479 7.6509
lfingers 7.12502
lthumb -10.0244 37.3922
rfemur 26.254 -9.03634 15.6685
rtibia 32.7942
rfoot 6.03754 11.6086
rtoes -19.0455
lfemur -17.4565 4.77236 -12.784
ltibia 41.4376
lfoot -22.6929 -14.0599
ltoes -3.16378
